<svg width="144" height="144" viewBox="0 0 144 144" fill="none" xmlns="http://www.w3.org/2000/svg">
<rect x="2" y="2" width="140" height="140" rx="2" fill="#0A9418" fill-opacity="0.75" stroke="#06600F" stroke-width="4"/>
<path d="M68.375 62.9014C68.375 64.6266 67.9437 66.1566 67.0811 67.4912C66.2184 68.8258 65.0303 69.8919 63.5166 70.6895C65.2419 71.5195 66.609 72.667 67.6182 74.1318C68.6273 75.5804 69.1318 77.2894 69.1318 79.2588C69.1318 82.4163 68.0576 84.9147 65.9092 86.7539C63.7607 88.5768 60.8392 89.4883 57.1445 89.4883C53.4499 89.4883 50.5202 88.5687 48.3555 86.7295C46.1908 84.8903 45.1084 82.4001 45.1084 79.2588C45.1084 77.2894 45.613 75.5723 46.6221 74.1074C47.6312 72.6426 48.9902 71.5033 50.6992 70.6895C49.1855 69.8919 47.9974 68.8258 47.1348 67.4912C46.2884 66.1566 45.8652 64.6266 45.8652 62.9014C45.8652 59.874 46.8743 57.4652 48.8926 55.6748C50.9108 53.8682 53.6533 52.9648 57.1201 52.9648C60.5706 52.9648 63.305 53.86 65.3232 55.6504C67.3577 57.4245 68.375 59.8415 68.375 62.9014ZM62.0518 78.7461C62.0518 77.1999 61.6042 75.9629 60.709 75.0352C59.8138 74.1074 58.6094 73.6436 57.0957 73.6436C55.5983 73.6436 54.402 74.1074 53.5068 75.0352C52.6117 75.9466 52.1641 77.1836 52.1641 78.7461C52.1641 80.2598 52.6035 81.4805 53.4824 82.4082C54.3613 83.3359 55.582 83.7998 57.1445 83.7998C58.6745 83.7998 59.8708 83.3522 60.7334 82.457C61.6123 81.5618 62.0518 80.3249 62.0518 78.7461ZM61.3193 63.2432C61.3193 61.8597 60.9531 60.7529 60.2207 59.9229C59.4883 59.0765 58.4548 58.6533 57.1201 58.6533C55.8018 58.6533 54.7764 59.0602 54.0439 59.874C53.3115 60.6878 52.9453 61.8109 52.9453 63.2432C52.9453 64.6592 53.3115 65.7985 54.0439 66.6611C54.7764 67.5238 55.8099 67.9551 57.1445 67.9551C58.4792 67.9551 59.5046 67.5238 60.2207 66.6611C60.9531 65.7985 61.3193 64.6592 61.3193 63.2432ZM97.0859 62.9014C97.0859 64.6266 96.6546 66.1566 95.792 67.4912C94.9294 68.8258 93.7412 69.8919 92.2275 70.6895C93.9528 71.5195 95.32 72.667 96.3291 74.1318C97.3382 75.5804 97.8428 77.2894 97.8428 79.2588C97.8428 82.4163 96.7686 84.9147 94.6201 86.7539C92.4717 88.5768 89.5501 89.4883 85.8555 89.4883C82.1608 89.4883 79.2311 88.5687 77.0664 86.7295C74.9017 84.8903 73.8193 82.4001 73.8193 79.2588C73.8193 77.2894 74.3239 75.5723 75.333 74.1074C76.3421 72.6426 77.7012 71.5033 79.4102 70.6895C77.8965 69.8919 76.7083 68.8258 75.8457 67.4912C74.9993 66.1566 74.5762 64.6266 74.5762 62.9014C74.5762 59.874 75.5853 57.4652 77.6035 55.6748C79.6217 53.8682 82.3643 52.9648 85.8311 52.9648C89.2816 52.9648 92.016 53.86 94.0342 55.6504C96.0687 57.4245 97.0859 59.8415 97.0859 62.9014ZM90.7627 78.7461C90.7627 77.1999 90.3151 75.9629 89.4199 75.0352C88.5247 74.1074 87.3203 73.6436 85.8066 73.6436C84.3092 73.6436 83.113 74.1074 82.2178 75.0352C81.3226 75.9466 80.875 77.1836 80.875 78.7461C80.875 80.2598 81.3145 81.4805 82.1934 82.4082C83.0723 83.3359 84.293 83.7998 85.8555 83.7998C87.3854 83.7998 88.5817 83.3522 89.4443 82.457C90.3232 81.5618 90.7627 80.3249 90.7627 78.7461ZM90.0303 63.2432C90.0303 61.8597 89.6641 60.7529 88.9316 59.9229C88.1992 59.0765 87.1657 58.6533 85.8311 58.6533C84.5127 58.6533 83.4873 59.0602 82.7549 59.874C82.0225 60.6878 81.6562 61.8109 81.6562 63.2432C81.6562 64.6592 82.0225 65.7985 82.7549 66.6611C83.4873 67.5238 84.5208 67.9551 85.8555 67.9551C87.1901 67.9551 88.2155 67.5238 88.9316 66.6611C89.6641 65.7985 90.0303 64.6592 90.0303 63.2432Z" fill="white"/>
</svg>
